<?xml version="1.0" encoding="utf-8"?>
<!-- Generator: Adobe Illustrator 27.5.0, SVG Export Plug-In . SVG Version: 6.00 Build 0)  -->
<svg version="1.1" xmlns="http://www.w3.org/2000/svg" xmlns:xlink="http://www.w3.org/1999/xlink" x="0px" y="0px"
	 viewBox="0 0 1200 800" style="enable-background:new 0 0 1200 800;" xml:space="preserve">
<g id="bg">
	<rect style="fill:#C9CCCC;" width="1200" height="800"/>
</g>
<g id="objects">
	<g>
		<defs>
			<rect id="SVGID_1_" width="1200" height="800"/>
		</defs>
		<clipPath id="SVGID_00000175302192688292504000000000217501173073655716_">
			<use xlink:href="#SVGID_1_"  style="overflow:visible;"/>
		</clipPath>
		
			<linearGradient id="SVGID_00000047050991800979747140000012863692837709510808_" gradientUnits="userSpaceOnUse" x1="600.0002" y1="819.8217" x2="600.0002" y2="-19.8218">
			<stop  offset="0" style="stop-color:#C3C3C4"/>
			<stop  offset="0.4406" style="stop-color:#C6C6C7"/>
			<stop  offset="0.7939" style="stop-color:#CED0D1"/>
			<stop  offset="1" style="stop-color:#D6DADB"/>
		</linearGradient>
		
			<path style="clip-path:url(#SVGID_00000175302192688292504000000000217501173073655716_);fill:url(#SVGID_00000047050991800979747140000012863692837709510808_);" d="
			M602.5-19.822h-5H-27.25v417.251v5.142v417.251H597.5h5h624.75V402.571v-5.142V-19.822H602.5z M669.916,788.016l17.277,26.806
			h-29.666L669.916,788.016z M672.4,782.64l20.404-44.148l93.498,36.161l-43.191,40.169h-49.968L672.4,782.64z M788.797,779.161
			l2.461,35.661h-40.806L788.797,779.161z M793.695,777.512l96.469,37.31H796.27L793.695,777.512z M694.906,733.943l75.954-164.344
			l152.664,245.222h-19.499L694.906,733.943z M542.472,814.822h-29.665l17.276-26.806L542.472,814.822z M506.859,814.822H456.89
			l-43.192-40.169l93.497-36.16l20.404,44.148L506.859,814.822z M411.204,779.161l38.345,35.661h-40.806L411.204,779.161z
			 M403.73,814.822h-93.895l96.47-37.31L403.73,814.822z M295.974,814.822h-19.499l152.665-245.222l75.954,164.344L295.974,814.822z
			 M530.084,11.984l-17.276-26.806h29.665L530.084,11.984z M527.599,17.36l-20.404,44.148l-93.496-36.16l43.191-40.17h49.968
			L527.599,17.36z M411.204,20.84l-2.461-35.662h40.806L411.204,20.84z M406.306,22.488l-96.47-37.31h93.895L406.306,22.488z
			 M505.094,66.056L429.139,230.4L276.475-14.822h19.499L505.094,66.056z M657.527-14.822h29.666l-17.277,26.806L657.527-14.822z
			 M693.142-14.822h49.968l43.191,40.169l-93.497,36.161L672.4,17.36L693.142-14.822z M788.797,20.84l-38.345-35.662h40.806
			L788.797,20.84z M796.27-14.822h93.894l-96.469,37.31L796.27-14.822z M904.026-14.822h19.499L770.86,230.4L694.906,66.057
			L904.026-14.822z M1222.25,248.03l-73.07,4.769l41.34-102.646l31.73,13.2V248.03z M1145.277,249.107l-66.255-145.339
			l106.882,44.464L1145.277,249.107z M1072.241,100.947l69.447,152.34l-159.603,10.417l60.139-175.244L1072.241,100.947z
			 M995.891,726.628l-92.23-86.996l27.822-235.39l91.55,266.777L995.891,726.628z M739.938,624.587l-27.865-122.739l116.979-70.079
			L739.938,624.587z M370.948,431.77l116.98,70.08l-27.866,122.738L370.948,431.77z M176.967,671.02l91.55-266.776l27.822,235.387
			l-92.23,86.997L176.967,671.02z M204.108,73.371l92.23,86.997l-27.822,235.387l-91.55-266.776L204.108,73.371z M460.062,175.413
			l27.866,122.738l-116.98,70.08L460.062,175.413z M829.052,368.23l-116.979-70.079l27.865-122.739L829.052,368.23z
			 M1023.033,128.98l-91.55,266.777l-27.822-235.39l92.23-86.996L1023.033,128.98z M936.195,402.571h72.984l-29.411,126.974
			L936.195,402.571z M745.345,476.087l-31.341-73.516h154.058L745.345,476.087z M868.062,397.429H714.004l31.341-73.516
			L868.062,397.429z M936.195,397.429l43.574-126.974l29.411,126.974H936.195z M981.196,266.296l0.142-0.413l0.024,0.374
			L981.196,266.296z M899.133,164.64l27.514,232.789h-48.855l-41.122-24.636l-48.032-103.928L899.133,164.64z M741.016,321.319
			l-32.447,76.11h-70.974l-4.783-140.932L741.016,321.319z M627.704,253.437l4.887,143.992H602.5V238.338L627.704,253.437z
			 M597.5,397.429h-30.092l4.887-143.991l25.205-15.1V397.429z M331.938,402.571h154.059l-31.342,73.516L331.938,402.571z
			 M220.231,529.546L190.82,402.571h72.985L220.231,529.546z M263.805,397.429H190.82l29.411-126.975L263.805,397.429z
			 M454.654,323.914l31.342,73.516H331.938L454.654,323.914z M562.404,397.429h-70.973l-32.448-76.109l108.204-64.822
			L562.404,397.429z M363.33,372.794l-41.123,24.635h-48.854l27.515-232.788l110.495,104.225L363.33,372.794z M218.804,266.296
			l-0.167-0.039l0.025-0.377L218.804,266.296z M185.687,397.429h-13.779l-67.474-136.12l111.102,7.251L185.687,397.429z
			 M166.327,397.429H53.268l70.064-86.737L166.327,397.429z M166.327,402.571l-42.995,86.737l-70.064-86.737H166.327z
			 M171.908,402.571h13.779l29.85,128.868l-111.102,7.252L171.908,402.571z M218.804,533.704l-0.143,0.416l-0.025-0.377
			L218.804,533.704z M300.868,635.359l-27.515-232.788h48.855l41.123,24.635l48.032,103.928L300.868,635.359z M458.984,478.681
			l32.448-76.11h70.973l4.783,140.931L458.984,478.681z M572.295,546.562l-4.887-143.991H597.5v159.091L572.295,546.562z
			 M602.5,402.571h30.091l-4.887,143.992L602.5,561.662V402.571z M637.595,402.571h70.974l32.447,76.11l-108.203,64.822
			L637.595,402.571z M836.669,427.207l41.122-24.636h48.855L899.133,635.36L788.637,531.134L836.669,427.207z M981.196,533.704
			l0.166,0.039l-0.024,0.375L981.196,533.704z M1014.312,402.571h13.78l67.473,136.12l-111.103-7.252L1014.312,402.571z
			 M1033.674,402.571h113.058l-70.064,86.737L1033.674,402.571z M1033.674,397.429l42.994-86.737l70.064,86.737H1033.674z
			 M1028.092,397.429h-13.78l-29.85-128.868l111.103-7.251L1028.092,397.429z M1025.331,122.286L958.41-14.822h113.973
			L1025.331,122.286z M1077.668-14.822h126.083l-155.598,86.007L1077.668-14.822z M993.594,68.664L786.425,264.079l-13.056-28.249
			L929.414-14.822h23.432L993.594,68.664z M736.5,167.974l-28.94,127.474L602.5,232.509v-46.91l106.662-76.778L736.5,167.974z
			 M597.5,232.509l-105.059,62.938l-28.941-127.474l27.339-59.154L597.5,185.599V232.509z M426.63,235.829l-13.056,28.249
			L206.406,68.664l40.749-83.486h23.432L426.63,235.829z M174.669,122.285L127.618-14.822H241.59L174.669,122.285z M151.848,71.187
			l-155.6-86.008h126.084L151.848,71.187z M217.915,263.704L58.311,253.288l69.449-152.341l30.016-12.487L217.915,263.704z
			 M54.723,249.107L14.097,148.231l106.882-44.464L54.723,249.107z M9.48,150.152l41.339,102.646l-73.069-4.769v-84.677
			L9.48,150.152z M-22.25,253.041l120.917,7.892l22.221,44.828l-73.197,90.616l-69.94-67.197V253.041z M47.691,403.623
			l73.197,90.616l-22.221,44.828l-120.917,7.892V470.82L47.691,403.623z M-22.25,551.97l73.069-4.769L9.48,649.848l-31.73-13.2
			V551.97z M54.723,550.893l66.257,145.339L14.097,651.768L54.723,550.893z M127.76,699.053L58.311,546.712l159.604-10.417
			L157.776,711.54L127.76,699.053z M174.669,677.715l66.92,137.107H127.618L174.669,677.715z M122.333,814.822H-3.752l155.6-86.008
			L122.333,814.822z M206.406,731.335l207.169-195.414l13.056,28.249L270.586,814.822h-23.432L206.406,731.335z M463.499,632.026
			l28.941-127.474L597.5,567.491v46.91L490.838,691.18L463.499,632.026z M602.5,567.491l105.06-62.939l28.94,127.474l-27.338,59.153
			L602.5,614.401V567.491z M773.369,564.17l13.056-28.249l207.169,195.414l-40.749,83.486h-23.432L773.369,564.17z
			 M1025.331,677.714l47.052,137.108H958.41L1025.331,677.714z M1048.153,728.814l155.598,86.007h-126.083L1048.153,728.814z
			 M982.086,536.295l159.603,10.417l-69.447,152.34l-30.017,12.487L982.086,536.295z M1145.277,550.893l40.626,100.875
			l-106.882,44.464L1145.277,550.893z M1190.52,649.847l-41.34-102.646l73.07,4.769v84.677L1190.52,649.847z M1222.25,546.958
			l-120.918-7.892l-22.221-44.828l73.197-90.616l69.941,67.198V546.958z M1152.309,396.377l-73.197-90.616l22.221-44.828
			l120.918-7.892v76.138L1152.309,396.377z M1222.25,157.937l-178.399-74.216l1.882-5.484l168.354-93.059h8.163V157.937z
			 M652.019-14.822l55.006,119.019L602.5,179.437V-14.822H652.019z M597.5,179.437l-104.525-75.241l55.006-119.019H597.5V179.437z
			 M-14.087-14.822l168.354,93.058l1.882,5.484L-22.25,157.936V-14.822H-14.087z M-22.25,336.114l63.818,61.315H-22.25V336.114z
			 M41.569,402.571l-63.818,61.315v-61.315H41.569z M-22.25,642.063l178.399,74.216l-1.882,5.484l-168.354,93.058h-8.163V642.063z
			 M547.981,814.822l-55.006-119.018L597.5,620.562v194.259H547.981z M602.5,620.562l104.524,75.24l-55.006,119.019H602.5V620.562z
			 M1214.087,814.822l-168.354-93.059l-1.882-5.484l178.399-74.216v172.759H1214.087z M1222.25,463.887l-63.818-61.316h63.818
			V463.887z M1158.432,397.429l63.818-61.316v61.316H1158.432z"/>
	</g>
</g>
</svg>
